<?xml version="1.0" standalone="no"?>
<!DOCTYPE svg PUBLIC "-//W3C//DTD SVG 20010904//EN"
 "http://www.w3.org/TR/2001/REC-SVG-20010904/DTD/svg10.dtd">
<svg version="1.0" xmlns="http://www.w3.org/2000/svg"
 width="1299.000000pt" height="1299.000000pt" viewBox="0 0 1299.000000 1299.000000"
 preserveAspectRatio="xMidYMid meet">
<metadata>
Created by potrace 1.13, written by Peter Selinger 2001-2015
</metadata>
<g transform="translate(0.000000,1299.000000) scale(0.100000,-0.100000)"
fill="#000000" stroke="none">
<path d="M0 6495 l0 -6495 6495 0 6495 0 0 6495 0 6495 -6495 0 -6495 0 0
-6495z m3765 6061 c39 -2 1481 -7 3205 -11 1724 -4 3140 -11 3145 -16 6 -4
113 -9 238 -10 131 0 225 -5 221 -10 -3 -5 0 -9 5 -9 6 0 11 -7 11 -15 0 -8 5
-15 10 -15 7 0 9 -762 5 -2322 -3 -1278 -7 -3954 -10 -5947 -4 -2496 -8 -3627
-16 -3631 -5 -4 -9 -11 -7 -16 2 -5 -5 -20 -15 -34 l-17 -25 -3558 -7 c-2430
-5 -3636 -3 -3807 4 -137 6 -301 12 -362 15 -62 3 -113 8 -113 12 0 4 -10 7
-22 7 -14 -1 -22 4 -20 12 1 8 -2 11 -7 8 -5 -4 -21 5 -35 19 l-26 26 3 1947
c2 1071 6 1974 9 2007 2 33 5 1825 7 3983 1 2559 5 3921 11 3917 6 -3 10 1 10
9 0 28 23 66 41 66 9 0 19 4 21 10 2 5 78 13 176 16 95 4 175 12 179 17 5 9
552 4 718 -7z"/>
<path d="M2970 12529 c-80 -5 -176 -12 -215 -16 -67 -8 -71 -9 -87 -44 -10
-19 -22 -71 -28 -115 -5 -49 -11 -2295 -14 -5916 l-4 -5838 29 -24 c20 -17 46
-26 81 -30 100 -9 333 -26 458 -31 69 -3 1739 -6 3713 -5 2599 0 3594 4 3611
12 14 6 29 22 35 37 7 17 12 1878 16 5626 4 3080 8 5744 9 5920 2 185 -1 332
-7 348 -5 15 -19 32 -30 39 -20 10 -396 13 -6537 40 -487 3 -950 1 -1030 -3z"/>
</g>
</svg>
